<mxfile host="app.diagrams.net" agent="Mozilla/5.0 (Macintosh; Intel Mac OS X 10_15_7) AppleWebKit/537.36 (KHTML, like Gecko) Chrome/127.0.0.0 Safari/537.36" version="24.7.6">
  <diagram name="Page-1" id="c0VkITqdIVa_M6NJ3r1m">
    <mxGraphModel dx="823" dy="504" grid="0" gridSize="10" guides="1" tooltips="1" connect="1" arrows="1" fold="1" page="1" pageScale="1" pageWidth="850" pageHeight="1100" math="0" shadow="0">
      <root>
        <mxCell id="0" />
        <mxCell id="1" parent="0" />
        <mxCell id="XTTomyIDRFA8E6qx83rM-1" value="CALL" style="rounded=0;whiteSpace=wrap;html=1;fillColor=#d5e8d4;strokeColor=#82b366;" vertex="1" parent="1">
          <mxGeometry x="154" y="186" width="120" height="60" as="geometry" />
        </mxCell>
        <mxCell id="XTTomyIDRFA8E6qx83rM-2" value="PUT" style="rounded=0;whiteSpace=wrap;html=1;fillColor=#f8cecc;strokeColor=#b85450;" vertex="1" parent="1">
          <mxGeometry x="577" y="186" width="120" height="60" as="geometry" />
        </mxCell>
        <mxCell id="XTTomyIDRFA8E6qx83rM-6" style="edgeStyle=orthogonalEdgeStyle;rounded=0;orthogonalLoop=1;jettySize=auto;html=1;exitX=0.16;exitY=0.55;exitDx=0;exitDy=0;exitPerimeter=0;" edge="1" parent="1" source="XTTomyIDRFA8E6qx83rM-3" target="XTTomyIDRFA8E6qx83rM-5">
          <mxGeometry relative="1" as="geometry">
            <Array as="points">
              <mxPoint x="94" y="128" />
            </Array>
          </mxGeometry>
        </mxCell>
        <mxCell id="XTTomyIDRFA8E6qx83rM-3" value="you can &lt;b&gt;buy&lt;/b&gt;&lt;div&gt;at the strike&lt;/div&gt;" style="ellipse;shape=cloud;whiteSpace=wrap;html=1;fillColor=#d5e8d4;strokeColor=#82b366;" vertex="1" parent="1">
          <mxGeometry x="154" y="84" width="120" height="80" as="geometry" />
        </mxCell>
        <mxCell id="XTTomyIDRFA8E6qx83rM-4" value="you can &lt;b&gt;sell&lt;/b&gt;&lt;div&gt;at the strike&lt;/div&gt;" style="ellipse;shape=cloud;whiteSpace=wrap;html=1;fillColor=#f8cecc;strokeColor=#b85450;" vertex="1" parent="1">
          <mxGeometry x="577" y="84" width="120" height="80" as="geometry" />
        </mxCell>
        <mxCell id="XTTomyIDRFA8E6qx83rM-5" value="you want to&lt;div&gt;&lt;b&gt;buy&lt;/b&gt; &lt;b&gt;cheap&lt;/b&gt;&lt;/div&gt;" style="ellipse;shape=cloud;whiteSpace=wrap;html=1;" vertex="1" parent="1">
          <mxGeometry x="34" y="269" width="120" height="80" as="geometry" />
        </mxCell>
        <mxCell id="XTTomyIDRFA8E6qx83rM-7" value="you want to&lt;div&gt;&lt;b&gt;sell&lt;/b&gt;&amp;nbsp;&lt;b&gt;high&lt;/b&gt;&lt;/div&gt;" style="ellipse;shape=cloud;whiteSpace=wrap;html=1;" vertex="1" parent="1">
          <mxGeometry x="697" y="269" width="120" height="80" as="geometry" />
        </mxCell>
        <mxCell id="XTTomyIDRFA8E6qx83rM-8" style="edgeStyle=orthogonalEdgeStyle;rounded=0;orthogonalLoop=1;jettySize=auto;html=1;entryX=0.625;entryY=0.2;entryDx=0;entryDy=0;entryPerimeter=0;" edge="1" parent="1" source="XTTomyIDRFA8E6qx83rM-4" target="XTTomyIDRFA8E6qx83rM-7">
          <mxGeometry relative="1" as="geometry">
            <Array as="points">
              <mxPoint x="772" y="124" />
            </Array>
          </mxGeometry>
        </mxCell>
        <mxCell id="XTTomyIDRFA8E6qx83rM-9" value="$60" style="rhombus;whiteSpace=wrap;html=1;fillColor=#dae8fc;strokeColor=#6c8ebf;" vertex="1" parent="1">
          <mxGeometry x="385" y="238" width="80" height="80" as="geometry" />
        </mxCell>
        <mxCell id="XTTomyIDRFA8E6qx83rM-10" value="strike: $58" style="text;html=1;align=center;verticalAlign=middle;whiteSpace=wrap;rounded=0;" vertex="1" parent="1">
          <mxGeometry x="395" y="312" width="60" height="30" as="geometry" />
        </mxCell>
      </root>
    </mxGraphModel>
  </diagram>
</mxfile>
